<svg id="Capa_1" data-name="Capa 1" xmlns="http://www.w3.org/2000/svg" viewBox="0 0 500 500"><defs><style>.cls-1{fill:#ffc802;}.cls-2{fill:#672f92;}.cls-3{fill:#2fb2b4;}.cls-4{fill:#672e92;}</style></defs><title>ISOTIPO RED REGIONAL DE EMPRENDIMIENTO</title><path class="cls-1" d="M229.24,272.84c-.57-.86-1.14-1.73-1.73-2.58a31.6,31.6,0,0,1,.25-37.26,5.78,5.78,0,0,0,.92-6c-11.21-32.71-33.9-52.06-68-57.54-16.52-2.65-32.37.66-47.4,7.95a16.4,16.4,0,0,0-6,4.83,31.7,31.7,0,0,1-37.29,9.68c-12.9-5.26-20.69-18.56-19.34-33a31.69,31.69,0,0,1,25.89-27.7c11.26-1.87,21.22,1.17,29.09,9.71a25.21,25.21,0,0,0,7.08,5.38c46.54,24,104.18-2,116.89-52.84.51-2,.89-4.07,1.31-6.1a17.53,17.53,0,0,0-1.47-12.25c-6.12-12.19-4.68-24.17,4.13-34.63,8.61-10.21,20-13.64,32.78-10.07,12.94,3.62,20.74,12.59,22.91,26a31.45,31.45,0,0,1-29.84,36.31,9.32,9.32,0,0,0-6,2.29c-17.38,14.32-27.88,32.44-30.18,55-2.71,26.57,5.72,49.2,24.41,68.14a5.62,5.62,0,0,0,4.43,1.93c13.37-.28,23.2,5.64,29.7,17.25a7.23,7.23,0,0,0,1,1.16,6,6,0,0,0,.71,3A33.79,33.79,0,0,1,285.16,255c-.13,1.79-.91,3.49-.73,5.32-.86.88-.94,2.12-1.38,3.18a31.48,31.48,0,0,1-29.85,20c-1.82,0-3.64-.1-5.46-.15-1.17-.92-2.67-.86-4-1.26C238,280.37,233.53,276.78,229.24,272.84Z"/><path class="cls-2" d="M229.24,272.84c4.29,3.94,8.77,7.53,14.49,9.24,1.34.4,2.84.34,4,1.26-2.17,2.76-4.38,5.49-6.51,8.28-10.79,14.16-15.36,30.53-15.14,47.92.34,26.86,11.5,48.76,32.81,65.35a12,12,0,0,0,7.14,2.56c12.67.68,24.44,10,28.08,23A31.84,31.84,0,1,1,231.83,436a30.21,30.21,0,0,1,2.55-9.77,8.31,8.31,0,0,0,.67-4.55,82.31,82.31,0,0,0-61.79-70.34c-20.2-5-39.51-2.46-58,6.93a15.69,15.69,0,0,0-4.79,3.86c-8.42,9.72-19.13,13.42-31.6,10.6s-20.51-10.89-23.75-23.33a31.78,31.78,0,0,1,55-28.35,16.25,16.25,0,0,0,6.44,4.83c31.4,12.83,60.28,8.5,86.84-12.52C216.69,302.76,224.28,288.67,229.24,272.84Z"/><path class="cls-3" d="M284.43,260.33c-.18-1.83.6-3.53.73-5.32a33.79,33.79,0,0,0-1.59-13.65,6,6,0,0,1-.71-3c7.9,1.73,15.84,3.06,24,2.78,21.08-.73,39.29-8.41,54.66-22.75,13.43-12.53,21.09-28.2,24.42-46.13a11,11,0,0,0-1.28-7.8,31.84,31.84,0,1,1,33.59,15.69,13.4,13.4,0,0,0-6.34,2.73c-22,17.69-33,40.73-31.84,68.87,1.1,26.13,12.84,47.09,33.8,62.82a8.85,8.85,0,0,0,5,1.77c18.17,1.14,31.21,15.48,30.55,33.46-.6,16.2-14.23,29.68-30.63,30.3a32,32,0,0,1-29.89-45.78,7.7,7.7,0,0,0,.92-4.48C387.25,310,379,293,364.33,279.31c-13.55-12.7-29.68-19.87-48.2-21.9C305.31,256.22,294.84,257.69,284.43,260.33Z"/><path class="cls-3" d="M344.88,335.29c.51,21.64-17.82,38.85-38.41,39-19.85.18-39-15.79-39.14-38.8A38.77,38.77,0,0,1,306,296.7C328.55,296.66,345.21,315.17,344.88,335.29Z"/><path class="cls-4" d="M121.82,251.43a37.76,37.76,0,1,1,37.44,38.08A37.83,37.83,0,0,1,121.82,251.43Z"/><path class="cls-1" d="M300.91,199.05a37.69,37.69,0,1,1,.52-75.38c20.69.3,37.68,16.93,37.53,37.58C338.78,184.73,319.45,199.68,300.91,199.05Z"/></svg>