<svg id="Capa_1" data-name="Capa 1" xmlns="http://www.w3.org/2000/svg" viewBox="0 0 1796.3 447.44"><defs><style>.cls-1{fill:#ffc802;}.cls-2{fill:#672f92;}.cls-3{fill:#2fb2b4;}.cls-4{fill:#672e92;}.cls-5{fill:#683093;}.cls-6{fill:#683092;}.cls-7{fill:#31b2b5;}.cls-8{fill:#32b3b6;}.cls-9{fill:#30b2b5;}</style></defs><title>LOGO COMPLETO</title><path class="cls-1" d="M184.51,242c-.54-.8-1.06-1.6-1.6-2.38a29.1,29.1,0,0,1,.23-34.31,5.33,5.33,0,0,0,.85-5.55c-10.33-30.12-31.21-47.94-62.59-53-15.21-2.44-29.82.6-43.65,7.31a15,15,0,0,0-5.49,4.46,29.2,29.2,0,0,1-34.33,8.91c-11.88-4.85-19-17.1-17.81-30.4A29.17,29.17,0,0,1,44,111.54c10.36-1.72,19.53,1.08,26.78,8.93a23.25,23.25,0,0,0,6.52,5c42.85,22.13,95.92-1.85,107.63-48.65.47-1.86.81-3.75,1.2-5.62a16.1,16.1,0,0,0-1.35-11.28c-5.63-11.22-4.31-22.26,3.81-31.88,7.92-9.4,18.42-12.56,30.18-9.28,11.91,3.34,19.09,11.6,21.09,23.91a29,29,0,0,1-27.47,33.43,8.72,8.72,0,0,0-5.52,2.1c-16,13.19-25.66,29.87-27.78,50.64-2.49,24.46,5.27,45.3,22.48,62.74a5.17,5.17,0,0,0,4.07,1.78c12.31-.26,21.36,5.19,27.35,15.88a7.67,7.67,0,0,0,.92,1.07,5.46,5.46,0,0,0,.66,2.71A31.2,31.2,0,0,1,236,225.56c-.12,1.64-.83,3.21-.67,4.89-.79.82-.87,2-1.28,2.93a29,29,0,0,1-27.48,18.4c-1.68,0-3.35-.09-5-.14-1.07-.85-2.46-.79-3.68-1.16C192.58,248.9,188.45,245.6,184.51,242Z"/><path class="cls-2" d="M184.51,242c3.94,3.62,8.07,6.92,13.34,8.5,1.22.37,2.61.31,3.68,1.16-2,2.54-4,5.06-6,7.63-9.93,13-14.14,28.1-13.94,44.12.31,24.73,10.59,44.89,30.21,60.17a11.1,11.1,0,0,0,6.58,2.35c11.66.63,22.5,9.18,25.85,21.17a29.32,29.32,0,1,1-57.35,5.08,27.89,27.89,0,0,1,2.34-9,7.57,7.57,0,0,0,.62-4.19A75.78,75.78,0,0,0,133,314.2c-18.6-4.59-36.39-2.26-53.42,6.39a14.35,14.35,0,0,0-4.4,3.55c-7.76,8.95-17.62,12.36-29.1,9.76s-18.88-10-21.87-21.48A29.27,29.27,0,0,1,74.8,286.31a14.86,14.86,0,0,0,5.92,4.45c28.92,11.82,55.5,7.83,80-11.53C173,269.52,179.93,256.55,184.51,242Z"/><path class="cls-3" d="M235.32,230.45c-.16-1.68.55-3.25.67-4.89A31.2,31.2,0,0,0,234.53,213a5.46,5.46,0,0,1-.66-2.71c7.28,1.59,14.59,2.82,22.09,2.56a75.41,75.41,0,0,0,50.32-20.94c12.37-11.55,19.42-26,22.49-42.48a10.08,10.08,0,0,0-1.19-7.19,29.32,29.32,0,1,1,30.94,14.46,12.4,12.4,0,0,0-5.85,2.5c-20.29,16.29-30.4,37.51-29.31,63.42,1,24.06,11.82,43.36,31.12,57.84a8.16,8.16,0,0,0,4.62,1.63c16.74,1.05,28.75,14.26,28.13,30.81-.55,14.91-13.1,27.33-28.2,27.9a29.46,29.46,0,0,1-27.52-42.15,7.11,7.11,0,0,0,.85-4.13c-2.37-18.28-10-33.95-23.48-46.57a75.08,75.08,0,0,0-44.37-20.17C254.55,226.66,244.91,228,235.32,230.45Z"/><path class="cls-4" d="M511,97.17c1,.47,1.61.79,2.26,1.09,6.24,2.93,10.35,7.49,11.71,14.47a103.67,103.67,0,0,1,1.78,13.89c.42,7.06.65,14.14.91,21.21.24,6.7.29,6.95,3.52,12-.6.59-1.35.29-2,.29q-11.88,0-23.75,0c-3.34,0-3.56-.12-4.39-3.4a49.57,49.57,0,0,1-1.46-10.3c-.24-6.35-.45-12.7-.7-19a37.9,37.9,0,0,0-1.46-8.84,11.68,11.68,0,0,0-9.48-8.77,33.62,33.62,0,0,0-7.14-.75c-9,0-18,0-27,0-3,0-3.08,0-3.08,3.23q0,21.58,0,43.18a23.52,23.52,0,0,0,0,2.52c.18,1.78-.67,2.23-2.33,2.21-6.35-.07-12.71,0-19.07,0-1.2,0-2.4-.06-3.6,0-1.39.07-2-.52-1.89-1.89,0-.72,0-1.44,0-2.16V44.22a18.45,18.45,0,0,1,.73-6.39,13.44,13.44,0,0,1,12.74-9.39q27.52-.06,55,.1a51.08,51.08,0,0,1,15.89,2.75C519.21,35,526,42.35,528.49,53.61a51,51,0,0,1,0,23.87c-2.26,8.93-7.31,15.52-16.16,18.84A8,8,0,0,0,511,97.17ZM470.29,51.41h0c-5.64,0-11.27,0-16.9,0-2.55,0-2.62.07-2.62,2.59q0,14.56,0,29.12c0,2.76.06,2.81,2.77,2.82,9.35,0,18.7,0,28.05,0a44.37,44.37,0,0,0,6.8-.5c9.14-1.37,13.77-6.54,14-15.73.33-12.11-5.31-18.08-17.38-18.3C480.12,51.34,475.2,51.41,470.29,51.41Z"/><path class="cls-4" d="M894.29,97.29c1.2.61,2.28,1.13,3.34,1.68a18.86,18.86,0,0,1,10.21,13.17,97.85,97.85,0,0,1,1.94,15.32c.42,6.94.66,13.9.92,20.85.24,6.21.33,6.64,3.38,11.43-.64.81-1.53.42-2.29.42q-11.68,0-23.39,0c-3.39,0-3.43,0-4.38-3.42a38.79,38.79,0,0,1-1.32-8.5c-.31-5.87-.5-11.74-.66-17.61a50,50,0,0,0-1.55-11.74c-1.39-5.15-4.71-8.16-10-9.17a37.39,37.39,0,0,0-7.15-.67q-13.14,0-26.27,0c-3.35,0-3.37,0-3.37,3.28q0,22,0,43.91c0,4.32.31,3.91-3.82,3.92-6.71,0-13.43,0-20.15,0-2.89,0-2.92,0-2.93-3,0-7.32,0-14.64,0-22q0-45.52,0-91c0-3.56.42-6.93,2.57-9.89,2.63-3.62,6.11-5.81,10.63-5.82,18.71,0,37.42-.07,56.13.16A46.47,46.47,0,0,1,895,32.76c9.94,4.53,15.11,12.61,16.95,23a50.9,50.9,0,0,1-.38,21.07c-2.2,9.08-7.1,15.88-16,19.34A1.83,1.83,0,0,0,894.29,97.29ZM853.38,51.41h0c-5.75,0-11.5.06-17.25,0-1.9,0-2.44.67-2.43,2.5.08,9.83,0,19.65,0,29.48,0,2.52.07,2.58,2.62,2.59,9.23,0,18.45,0,27.68,0a47.69,47.69,0,0,0,7.16-.49c9-1.3,13.7-6.2,14.13-15.26.56-11.46-4.38-18.61-17.23-18.79C863.2,51.36,858.29,51.41,853.38,51.41Z"/><path class="cls-2" d="M1221.69,281.6c0-10.07,0-20.15,0-30.22a44.15,44.15,0,0,1,1.84-11.69c3.86-14,13.15-22.25,27.13-25.28a67.57,67.57,0,0,1,31.36.5,36.22,36.22,0,0,1,12.07,5.42c1.05.74,1.87,1.16,3.16.26,5.74-4,12.28-5.89,19.15-6.67,8.75-1,17.5-1,26.09,1.23,14.61,3.77,23.13,13.33,26.08,28a70.45,70.45,0,0,1,1.28,13.59q0,28.42,0,56.86c0,.72,0,1.44,0,2.15a1.23,1.23,0,0,1-1.38,1.3c-5.38-.16-10.82.63-16.13-.65-4.6-1.11-7.57-3.9-8.41-8.75a30.17,30.17,0,0,1-.4-5.36q0-24.48,0-48.94a24.86,24.86,0,0,0-.67-6.42,13.17,13.17,0,0,0-9.45-9.9,25.77,25.77,0,0,0-14.89,0c-5.85,1.72-8.87,5.85-9.63,11.73a42.1,42.1,0,0,0-.2,5.39q0,28.78,0,57.58a23.53,23.53,0,0,0,0,2.52c.24,2-.74,2.42-2.53,2.4-7-.08-13.91,0-20.87,0-2.48,0-2.53-.08-2.54-2.65,0-8.87,0-17.75,0-26.63,0-10.91,0-21.83,0-32.74a35,35,0,0,0-.6-6.8c-1.13-5.8-4.41-9.71-10.26-11.28a27.86,27.86,0,0,0-12.48-.34c-7.12,1.35-11,5.86-11.67,13.13-.11,1.19-.07,2.4-.07,3.6q0,29.5,0,59a23.53,23.53,0,0,0,0,2.52c.21,1.82-.69,2.22-2.32,2.21-7.2-.06-14.4-.07-21.59,0-1.73,0-2.3-.57-2.27-2.28.09-4.68,0-9.36,0-14V281.6Z"/><path class="cls-4" d="M683.2,282.69q0,15.12,0,30.24c0,4.67.46,4.17-4.32,4.13-3.71,0-7.45.38-11.13-.25-7.46-1.29-10.57-5-10.58-12.54q0-24.84,0-49.68a31.53,31.53,0,0,0-.73-7.14A13.45,13.45,0,0,0,646,236.75a27,27,0,0,0-13.19,0c-6.38,1.56-10.08,6.2-10.67,13.29-.1,1.19-.06,2.39-.06,3.59v59c0,4.27.51,3.93-3.78,3.94-6.12,0-12.24,0-18.36,0-.72,0-1.44,0-2.16,0-1.2.05-1.76-.47-1.69-1.7,0-.84,0-1.68,0-2.52v-59a27.69,27.69,0,0,0-.39-5.37c-1.29-6.66-5.28-10.66-11.89-11.84a27.32,27.32,0,0,0-12.83.49,12.8,12.8,0,0,0-9.44,10.71,38.78,38.78,0,0,0-.54,6.81q0,28.8,0,57.6a23.53,23.53,0,0,0,0,2.52c.24,2-.74,2.39-2.51,2.37-7-.07-13.92,0-20.88,0-2.61,0-2.68-.06-2.68-2.52,0-20.4-.05-40.8.07-61.2a49.42,49.42,0,0,1,2.69-15.53c4-11.74,12.09-19.12,23.93-22.29a67.3,67.3,0,0,1,32.77-.42,37.59,37.59,0,0,1,13.13,5.68c1.05.72,1.85,1.19,3.16.31,7.6-5.19,16.24-6.88,25.25-7.17a70.31,70.31,0,0,1,18.24,1.32c16.39,3.77,26,14.24,28.31,30.88a106.57,106.57,0,0,1,.72,14.72C683.19,267.81,683.2,275.25,683.2,282.69Z"/><path class="cls-2" d="M1032.87,170.3h18.88a46.84,46.84,0,0,0,5,0c3-.33,5,.37,6.18,3.65,1,2.91,3.74,4.66,6.67,5.64a29,29,0,0,0,18,.4,15.73,15.73,0,0,0,9.8-8.43,23.63,23.63,0,0,0,2.54-9.66c.19-4.42,0-8.86,0-13.26-.62-.33-.89.13-1.16.48-6.92,9.13-16.39,12.91-27.54,13a50,50,0,0,1-11.43-1.15,33.08,33.08,0,0,1-23.13-17.8,54.76,54.76,0,0,1-5.45-17.79c-1.67-11.83-1.92-23.65.9-35.37,4.42-18.31,16.36-29.17,35-31.89a74.48,74.48,0,0,1,28.57,1c18.22,4.42,27,16.59,29.41,33.53a85.66,85.66,0,0,1,.71,12.2q-.06,29.31,0,58.64a49.48,49.48,0,0,1-1.36,11.76,31.29,31.29,0,0,1-16.52,21.11c-6.79,3.6-14.14,5.24-21.69,6-8.14.8-16.29,1-24.3-1.17C1046.23,197,1037.4,186.14,1032.87,170.3Zm67.32-61.55c0-7.08-.66-13.49-3.6-19.45a17.42,17.42,0,0,0-12.51-9.87,25.8,25.8,0,0,0-11.4.1,17.22,17.22,0,0,0-10.87,7.67,27.12,27.12,0,0,0-3.47,8.25,56.68,56.68,0,0,0-1.26,19.29,39.17,39.17,0,0,0,3.65,14.19c3.39,6.76,9,10.09,16.42,10.38,7.78.3,14.09-2.37,18.24-9.25a27.6,27.6,0,0,0,2.81-6.59A50.34,50.34,0,0,0,1100.19,108.75Z"/><path class="cls-2" d="M474.3,316.6H431.12c-.84,0-1.68,0-2.52,0-1.18,0-1.79-.43-1.73-1.68,0-.83,0-1.67,0-2.51V200.85a24.88,24.88,0,0,1,.47-6.08c1.39-5.51,4.78-8.55,10.56-9.26a34.6,34.6,0,0,1,4-.14h76.29a11.37,11.37,0,0,0,1.43,0c2-.26,2.4.75,2.38,2.52-.07,5.87,0,11.75,0,17.63,0,2.73-.06,2.77-3.18,2.77H473.39c-5.76,0-11.52,0-17.27,0-2.58,0-2.64.06-2.65,2.55q0,11.15,0,22.31c0,3.14,0,3.18,3.13,3.18q21.76,0,43.54,0c5.08,0,4.43-.45,4.42,4.39,0,3,.24,6-.44,9-1.08,4.78-4.11,7.46-8.76,8.41a33.59,33.59,0,0,1-6.8.59c-10.55,0-21.11,0-31.66,0-3.62,0-3.44-.18-3.44,3.22q0,13.66,0,27.35c0,3.22,0,3.24,3.42,3.24h61.89c3.1,0,3.13,0,3.14,3.17q0,9,0,18c0,2.88,0,2.92-3,2.92Z"/><path class="cls-4" d="M724.19,304.37c-.87,1.07-.45,2.31-.45,3.43,0,11,0,22.07,0,33.1,0,1.92,0,3.85-.18,5.75-.51,5.29-3.47,8.53-8.72,9.55s-10.28.3-15.43.46c-1.11,0-1.42-.68-1.44-1.62s0-1.68,0-2.51q0-45.52,0-91a65.18,65.18,0,0,1,3.29-21.22c4.42-12.9,13.23-21.16,26.38-24.67a69.47,69.47,0,0,1,34.52-.44c14.37,3.45,24,12.45,28.09,26.6a83.81,83.81,0,0,1-1.29,52c-6.81,19.42-28,29.46-47.65,23.22a31,31,0,0,1-14.65-10C725.88,306.1,725.45,304.9,724.19,304.37Zm42.91-39.25c-.15-2.4-.18-5-.53-7.65a34.9,34.9,0,0,0-3.46-12,18.21,18.21,0,0,0-8.26-8.22c-12.2-5.91-25.5-.17-29.2,12.8a54.58,54.58,0,0,0,.35,30.48,24.59,24.59,0,0,0,3.38,7.11,17.3,17.3,0,0,0,9,6.82c11.62,3.85,22.14-1.31,26.19-12.84C766.42,276.34,766.83,270.86,767.1,265.12Z"/><path class="cls-2" d="M717.7,70.39V66.91q0-17.64,0-35.27c0-3.19,0-3.21,3.06-3.23,3.24,0,6.48-.06,9.72,0a12.84,12.84,0,0,1,12.71,11.42,24.78,24.78,0,0,1,.17,3.23q0,36.54,0,73.07a66.11,66.11,0,0,1-1.68,15.34c-3.52,14.65-12.51,24-27,27.93a69.54,69.54,0,0,1-34.54.46c-16.77-4-26.85-14.8-30.49-31.4a90,90,0,0,1,1.25-44.15c2.57-9.14,7.29-17,15.64-22.09a41.27,41.27,0,0,1,32.89-4.68,29.44,29.44,0,0,1,15.36,10.16c.76.91,1.49,1.86,2.23,2.79Zm.08,37.69c.16-1.84-.46-5.16-.92-8.48a33.47,33.47,0,0,0-2.17-7.95c-3.32-8.2-9.41-12.28-18.41-12.36s-15.49,3.77-18.65,11.94c-4.56,11.82-4.58,23.9-.68,35.92a17.54,17.54,0,0,0,7.6,9.74,20.84,20.84,0,0,0,30.39-10.33C717,121.1,717.6,115.4,717.78,108.08Z"/><path class="cls-2" d="M1646.6,70.24c.87-1,.45-2.3.45-3.43,0-11.76,0-23.52,0-35.27,0-3.1,0-3.11,3.16-3.13s6.24-.06,9.35,0c7.47.15,12.9,5.52,13,13,.1,10.2,0,20.39,0,30.59q0,21.78,0,43.55a65.35,65.35,0,0,1-2.06,17.44c-3.77,13.85-12.7,22.57-26.41,26.34a69.5,69.5,0,0,1-34.53.55c-16.45-3.82-26.61-14.27-30.49-30.53a88.85,88.85,0,0,1,1.18-45.52,40.8,40.8,0,0,1,6.64-13.48c6.3-8.37,15-12.41,25.12-13.85a40.36,40.36,0,0,1,14,.33,30.83,30.83,0,0,1,18.57,11.47C1645.13,69.05,1645.46,70.05,1646.6,70.24Zm-43.18,39.84c.31,6.32.73,12.66,3.45,18.57a17.78,17.78,0,0,0,9.06,9.32c11.88,5.26,24.37,0,28.59-12.28,2.87-8.34,3-16.93,1.7-25.57a33.69,33.69,0,0,0-3.41-10.93,17.76,17.76,0,0,0-8.67-8.28c-11.53-5-23.53,0-27.87,11.82C1604.21,98.31,1603.7,104.15,1603.42,110.08Z"/><path class="cls-2" d="M1144.19,227.23V206.28c0-6,0-12,0-18,0-2.88.06-2.9,3-2.92,3.24,0,6.48-.05,9.72,0a13,13,0,0,1,12.93,12.38c0,.6,0,1.2,0,1.8q0,37.6-.07,75.22a57.36,57.36,0,0,1-2,14.56c-3.64,13.7-12.3,22.55-25.89,26.37a69.28,69.28,0,0,1-35.93.45c-16.14-4-25.82-14.65-29.49-30.61a88.41,88.41,0,0,1,1.26-44.81c2.62-9.15,7.44-17,15.85-21.92a41.1,41.1,0,0,1,31.54-4.65,30.11,30.11,0,0,1,16.35,10.52A6.53,6.53,0,0,0,1144.19,227.23Zm-.22,39.28c0-2.15.17-4.32,0-6.46a38.94,38.94,0,0,0-4-14.44c-6.41-12.48-25.06-12-32-3.52a27.3,27.3,0,0,0-4.92,9.49,50.38,50.38,0,0,0-1.93,11.67,49.12,49.12,0,0,0,2.61,20.51,18,18,0,0,0,9.19,10.57c11.71,5.6,24.64.3,29-11.91A40.91,40.91,0,0,0,1144,266.51Z"/><path class="cls-2" d="M635.31,128.66c-3.83,14.43-10.92,25.5-24.93,30.55a55.57,55.57,0,0,1-40.76-.94c-11.71-4.73-18.91-13.77-22.35-25.66A84.24,84.24,0,0,1,547,85.76c5.05-18,17.67-26.92,35.3-29.16a67.18,67.18,0,0,1,20.41.5c15.49,2.78,25.67,11.71,30.66,26.53,3.33,9.91,3.91,20.18,3.64,30.55,0,1.55-.63,2.19-2.15,2.09-.84-.06-1.68,0-2.52,0H575.15c-.84,0-1.69.07-2.52,0-1.45-.12-1.92.55-1.78,1.91.52,5.06,1.6,10,4.56,14.21a16.46,16.46,0,0,0,11.66,7c7.23,1.06,13.72-.79,18.91-5.8a17,17,0,0,1,13.65-5C624.64,128.87,629.68,128.66,635.31,128.66ZM571.6,97.45a20.74,20.74,0,0,0,2.1.19h32.69l1.44,0c1.08,0,1.44-.52,1.34-1.56a27.28,27.28,0,0,0-2.54-8.94,16.06,16.06,0,0,0-10.14-9C583.54,74.17,571.25,83.64,571.6,97.45Z"/><path class="cls-2" d="M1774.44,128.66c-3.39,17.75-16.17,30.2-33.37,33a63.29,63.29,0,0,1-23.24-.54c-16.48-3.49-27.07-13.42-31.53-29.53a84.21,84.21,0,0,1-.23-44.8c4.71-17.64,17.13-28.07,35.32-30.13a71,71,0,0,1,20.78.51c15.32,2.81,25.41,11.6,30.47,26.29,3.47,10,3.87,20.43,3.62,30.91,0,1.32-.45,2-1.88,1.94-.83-.05-1.68,0-2.52,0H1715c-5.15,0-5.17,0-4.33,5.21a35,35,0,0,0,1,4.2c4,13.66,15.23,15.38,24.21,13.24a21.82,21.82,0,0,0,10.46-6.06,14,14,0,0,1,11-4.23C1762.93,128.78,1768.57,128.66,1774.44,128.66Zm-63.68-31.25h37.82c-1-13.07-8.08-20.32-19.4-20.07C1718.73,77.57,1711.16,85.76,1710.76,97.41Z"/><path class="cls-2" d="M1017.78,128.66c.39,1.94-.43,3.35-.92,4.79-6.36,18.77-19.27,27.32-37.66,28.82a56,56,0,0,1-26.76-4c-11.37-4.81-18.59-13.48-22-25.08a84.08,84.08,0,0,1-.18-48.23c4.29-14.71,14.17-23.88,29.17-27.28a63.73,63.73,0,0,1,29.58.17c12.4,3,21.08,10.51,26,22.24,4.6,11,5.31,22.54,5,34.25,0,1.64-.86,2-2.28,2-4,0-7.92,0-11.87,0H957.6c-4.17,0-4.22,0-3.55,4.22a30,30,0,0,0,3.26,10.22,16.67,16.67,0,0,0,12.88,8.72,22,22,0,0,0,19.16-6.16,15.7,15.7,0,0,1,12.32-4.65C1007,128.83,1012.42,128.66,1017.78,128.66ZM954.1,97.47h37.83a22,22,0,0,0-2.24-10.14c-2.84-6-7.55-9.43-14.24-9.93-7.2-.54-13.22,1.56-17.27,7.91A29.37,29.37,0,0,0,954.1,97.47Z"/><path class="cls-2" d="M963.47,285.87c-3.61,13.26-10.21,24.17-23.56,29.36-14.51,5.66-29.15,5.11-43.39-1.17-9.72-4.3-15.95-12-19.69-21.87a66.86,66.86,0,0,1-3.9-18.58c-.83-10.35-.39-20.62,2.48-30.67,5-17.38,16.73-26.84,34.37-29.36a66.18,66.18,0,0,1,21.84.46c15.19,2.89,25.12,11.79,30,26.31,3.31,9.79,3.86,20,3.67,30.2,0,1.72-.78,2.25-2.43,2.23-5.87-.06-11.75,0-17.63,0h-41.4c-1,0-1.92,0-2.87,0-1.47,0-1.87.72-1.71,2,.59,4.67,1.5,9.23,4,13.31,4.47,7.16,13.7,10.07,22.57,7.1a24.39,24.39,0,0,0,9.7-6,12.37,12.37,0,0,1,9.7-3.83c4.91.13,9.83,0,14.75,0A6.18,6.18,0,0,1,963.47,285.87ZM937.67,254a27.57,27.57,0,0,0-3.39-11.48A14.9,14.9,0,0,0,924,234.67c-9.87-1.92-18.17.92-22.35,11.42a35.16,35.16,0,0,0-1.62,5.51c-.57,2.62-.34,2.87,2.36,2.88q16.71,0,33.43,0A2.37,2.37,0,0,0,937.67,254Z"/><path class="cls-2" d="M1514.63,285.74c-5.73,23.63-21.77,31.78-38.6,33a61.55,61.55,0,0,1-20-1.65c-15-3.85-24.73-13.35-29-28.13a84.16,84.16,0,0,1-.38-45.83c4.7-17.44,16.56-27,34.21-29.52a65.64,65.64,0,0,1,22.19.48c14.85,2.9,24.69,11.51,29.66,25.76,3.37,9.67,4.07,19.68,3.76,29.8-.1,3.08-.23,3.11-3.27,3.11H1456c-1.08,0-2.17.07-3.24,0-1.8-.14-2.3.66-2.13,2.35a29.74,29.74,0,0,0,4.12,13.27c3.84,6.07,11.51,9.07,19.22,7.67a23.36,23.36,0,0,0,12.57-6.55,13.43,13.43,0,0,1,10.67-4.13c5.51.19,11,.07,16.55.1A3.51,3.51,0,0,1,1514.63,285.74ZM1451,254.24a61,61,0,0,0,9.12.24q13.13.06,26.27,0c2.64,0,2.82-.19,2.41-2.58a31.69,31.69,0,0,0-3.21-9.49c-5.93-11.08-23.33-10.54-29.53-1.88A28.84,28.84,0,0,0,1451,254.24Z"/><path class="cls-2" d="M1181.24,109.23a81.12,81.12,0,0,1,3-23.8c5.08-17,16.63-26.38,34-28.78a66,66,0,0,1,23.61.87c15.5,3.49,25.29,13.19,29.49,28.33a85.68,85.68,0,0,1,0,46.89c-4.81,17-16.32,26.59-33.79,29a64.15,64.15,0,0,1-26.73-1.46c-12.29-3.5-20.57-11.36-25.2-23.19C1182.13,128.14,1181.17,118.77,1181.24,109.23Zm66.2-1.26c-.36-7.37-.84-12.73-2.93-17.79-1.9-4.6-4.85-8.22-9.63-10.09-10.08-3.93-20.52.54-24.53,10.56a36.69,36.69,0,0,0-1.56,5.14,58.5,58.5,0,0,0-1.25,17.84c.42,5.62,1.23,11.19,4,16.27a16.66,16.66,0,0,0,10.43,8.71c10,2.78,18.54-1.48,22.38-11.09C1247.09,120.59,1247.32,113.31,1247.44,108Z"/><path class="cls-2" d="M1678.13,265.79a77.17,77.17,0,0,1,2.93-23.46c4.88-16.53,15.93-26,32.89-28.67a66.84,66.84,0,0,1,23.26.45c15.41,3,25.5,12.08,30.29,27,3.31,10.3,4,20.91,3.26,31.65a74.11,74.11,0,0,1-3.11,17.65c-5.46,17.19-17.76,26.26-35.35,28.16a67.08,67.08,0,0,1-21.48-.9c-16.49-3.59-26.17-14.12-30.35-30.12-.63-2.43-1.07-4.92-1.48-7.4A78.21,78.21,0,0,1,1678.13,265.79Zm65.81-.37c.08-6.15-.37-12.24-2.61-18-3.83-9.9-11.73-13.27-22.06-11.13-6.94,1.44-10.71,6.46-12.78,12.85-2.44,7.53-2.73,15.29-2,23.1a41.49,41.49,0,0,0,2.91,12.55c3.89,9.17,12.32,13.09,22.86,10.16,5.39-1.49,8.54-5.53,10.59-10.49C1743.36,278.35,1744,271.93,1743.94,265.42Z"/><path class="cls-2" d="M1386.47,84.51c1.15-7.83,4.06-14.32,9.76-19.42s12.83-7.42,20.3-8.39a85.63,85.63,0,0,1,29.34,1.3,37.56,37.56,0,0,1,11.69,4.5,23.7,23.7,0,0,1,12,19.75c.16,2.39.09,4.8.1,7.19q0,15.3,0,30.6a51.36,51.36,0,0,1-1.47,12.83c-2.84,11.22-9.5,19.33-20.08,23.87-13,5.57-26.6,7.25-40.48,4.17-17-3.78-25.6-17-24.1-34a42,42,0,0,1,.78-5.33,26.31,26.31,0,0,1,13.68-18,57.19,57.19,0,0,1,18.77-5.91c5.09-.81,10.22-1.38,15.31-2.18a21.26,21.26,0,0,0,8.08-2.86c2.47-1.54,4.29-3.61,4.07-6.72s-2-5.06-4.6-6.41a16.44,16.44,0,0,0-4.78-1.51,37.69,37.69,0,0,0-15,.24c-3,.7-5.64,2.08-7.06,5a1.89,1.89,0,0,1-1.88,1.33Zm58.19,24.83c-1.57-.35-2.5.36-3.47.72a118,118,0,0,1-17.29,4.85c-4,.82-7.93,2-11.05,4.87-4.24,3.85-4.87,8.62-3.2,13.83,1.49,4.65,4.93,7,10.41,7.31a39,39,0,0,0,6.11-.18,20,20,0,0,0,18-17.31A72.67,72.67,0,0,0,1444.66,109.34Z"/><path class="cls-5" d="M1313,125.21q0,15.83,0,31.67c0,3.28,0,3.3-3.38,3.3q-9.9,0-19.8,0c-3.12,0-3.15,0-3.15-3.15,0-18.12,0-36.23,0-54.35A79,79,0,0,1,1288,85.86c3.17-14.74,11.79-24.35,26.63-27.95a66.86,66.86,0,0,1,32.06,0c14.74,3.61,23.16,13.26,26.17,27.9a69.54,69.54,0,0,1,1.3,14q0,28.26,0,56.51c0,4.26.26,3.9-3.87,3.91-2.88,0-5.76,0-8.64,0A18.7,18.7,0,0,1,1355,159a9.94,9.94,0,0,1-6.59-7.9,33.11,33.11,0,0,1-.5-6.44c0-16.08-.14-32.16.06-48.24.14-11.07-5.56-17.69-17.82-17.5a28.69,28.69,0,0,0-6.06.65c-6.5,1.51-10.37,5.86-10.93,12.58-.23,2.74-.16,5.51-.16,8.27Q1313,112.79,1313,125.21Z"/><path class="cls-4" d="M1528.36,281.91q0-13.14,0-26.27a59.76,59.76,0,0,1,2.13-16.34c3.56-12.62,11.72-20.73,24.27-24.17a65.42,65.42,0,0,1,33.43-.34c14.44,3.56,22.81,12.94,25.9,27.26a64.26,64.26,0,0,1,1.41,13.57q0,28.61,0,57.21a13.83,13.83,0,0,0,0,1.44c.18,1.64-.38,2.4-2.18,2.35-4-.11-7.92.1-11.87-.1-7.82-.38-11.85-4.61-11.87-12.39q-.08-24.84,0-49.66A34.71,34.71,0,0,0,1589,248c-1.14-6.14-4.57-10.14-10.74-11.65a28,28,0,0,0-12.14-.22c-7.19,1.42-11.06,6.07-11.64,13.56-.09,1.19,0,2.39,0,3.59v59c0,.84,0,1.68,0,2.52.06,1.18-.37,1.76-1.64,1.76-7.56,0-15.11-.05-22.67,0-2.17,0-1.79-1.42-1.79-2.68q0-13.67,0-27.34C1528.35,285,1528.35,283.47,1528.36,281.91Z"/><path class="cls-2" d="M1064.14,282.07q0,15.84,0,31.68c0,2.78,0,2.81-2.71,2.84-3.48,0-7,0-10.44,0a15.79,15.79,0,0,1-4.25-.59c-5.13-1.48-7.91-4.67-8.46-10a41.47,41.47,0,0,1-.12-4.32v-48.6a27.7,27.7,0,0,0-.44-5.36c-1.31-6.52-5.26-10.39-11.7-11.59a27.44,27.44,0,0,0-12.83.42,12.72,12.72,0,0,0-9.55,10.6,36.8,36.8,0,0,0-.57,6.8q0,29.34,0,58.68c0,4.29.41,3.92-3.79,3.93q-9.36,0-18.72,0c-3.53,0-3.55,0-3.55-3.46V261.65a101.31,101.31,0,0,1,.63-15.08c1.22-8.11,3.76-15.62,9.41-21.78,5.23-5.71,11.9-8.86,19.32-10.42a69.1,69.1,0,0,1,27.52-.27c17.06,3.26,27.21,14.06,29.52,31.3a94,94,0,0,1,.73,12.55Z"/><path class="cls-3" d="M291,299.47c.47,19.93-16.41,35.78-35.37,35.95-18.28.17-36-14.54-36-35.73a35.68,35.68,0,0,1,35.64-35.75C275.94,263.9,291.28,281,291,299.47Z"/><path class="cls-6" d="M1627,244.1V189.78c0-.84,0-1.68,0-2.52-.08-1.35.45-1.93,1.86-1.91,4.2.07,8.4-.15,12.59.11,5.44.33,10.09,5,11,10.73.67,4.28.2,8.61.3,12.93.13,6.18-.85,5.21,5.34,5.3,2.64,0,5.28.06,7.92,0,1.51,0,2.22.49,2.13,2.07a56.15,56.15,0,0,1-.24,6.1,12.11,12.11,0,0,1-12.08,10.27c-3.39.09-3.06.49-3.06,3.31q0,26.09,0,52.16c0,5.42,1.8,7.23,7.32,7.5,2,.11,4.08.09,6.12.07,1.33,0,1.94.48,1.93,1.9,0,5.27-.06,10.55,0,15.82,0,1.6-.7,2-2.15,2.11-8.64.41-17.26.59-25.85-.58-7.86-1.07-12.19-5.6-13-13.49A45.35,45.35,0,0,1,1627,297Q1627,270.55,1627,244.1Z"/><path class="cls-4" d="M85.59,222.25a34.77,34.77,0,1,1,34.48,35.07A34.84,34.84,0,0,1,85.59,222.25Z"/><path class="cls-1" d="M250.49,174a34.7,34.7,0,1,1,.48-69.4c19,.28,34.69,15.59,34.55,34.6C285.36,160.85,267.56,174.61,250.49,174Z"/><path class="cls-2" d="M1485.93,94.36V32.85c0-.84,0-1.68,0-2.52-.08-1.33.43-2,1.85-1.94,4.19.07,8.4-.13,12.58.1,6.1.35,10.94,5.52,11.43,11.88.07.84,0,1.68,0,2.52q0,56.48,0,112.94c0,4.93.52,4.32-4.47,4.35-5.51,0-11,0-16.54,0s-4.85.76-4.85-4.67Q1485.9,124.93,1485.93,94.36Z"/><path class="cls-2" d="M805.18,284.58c.13-7.29-.21-15.92.29-24.55a62.41,62.41,0,0,1,3-16.2c4.33-13.08,13.1-21.75,26.18-26.06,7.94-2.63,16.15-3.3,24.45-3.37,1.85,0,2.54.6,2.52,2.48q-.12,11,0,21.93c0,1.89-.67,2.55-2.51,2.5-2.87-.08-5.75-.11-8.62.06-11.69.71-18.15,7.2-18.9,18.92-.11,1.67-.09,3.36-.09,5q0,23.55,0,47.1c0,.84,0,1.68,0,2.52.06,1.26-.6,1.7-1.76,1.65-.24,0-.48,0-.72,0-7.07,0-14.14,0-21.21,0-2.51,0-2.57-.07-2.58-2.63C805.16,304.61,805.18,295.26,805.18,284.58Z"/><path class="cls-2" d="M1141.71,108.49V61.74c0-.83,0-1.67,0-2.51s.34-1.64,1.42-1.63c5.5.09,11.06-.57,16.5.55a9.11,9.11,0,0,1,7.4,7.45,27.4,27.4,0,0,1,.61,6.06q0,42.61,0,85.23c0,3.26,0,3.28-3.36,3.29q-9.72,0-19.42,0c-3.11,0-3.14,0-3.14-3.14Q1141.71,132.76,1141.71,108.49Z"/><path class="cls-6" d="M1384.53,265.55V218.78c0-.83,0-1.68,0-2.51-.08-1.44.67-1.86,2-1.85,4.31,0,8.65-.19,12.94.1,7.47.51,10.87,4.46,10.89,12.4q.06,32,0,64c0,7.68,0,15.35,0,23,0,2.55-.06,2.61-2.58,2.62q-10.24,0-20.5,0c-2.67,0-2.71-.06-2.72-2.84Q1384.52,289.65,1384.53,265.55Z"/><path class="cls-5" d="M1181.37,265.41V218.66c0-.84,0-1.68,0-2.52,0-1.21.53-1.73,1.73-1.71,4.67.07,9.37-.19,14,.24,6.23.57,9.09,3.67,9.91,9.89a24.86,24.86,0,0,1,.13,3.23q0,42.43,0,84.87c0,4.14.42,3.94-3.81,3.94-6.35,0-12.7,0-19.06,0-2.86,0-2.9,0-2.9-3Q1181.36,289.5,1181.37,265.41Z"/><path class="cls-7" d="M639.64,406.76l18.11,20.55c-.66,1.24-1.59.82-2.36.87-1.19.06-2.39,0-3.59,0-2.64,0-5.55.59-7.83-.33-2.57-1-4-4-5.93-6.13-3.58-4-7.12-8.1-10.6-12.23a4.52,4.52,0,0,0-4-1.87c-2,.12-4.08,0-6.12,0-2.58.06-2.64.09-2.67,2.6,0,4.56,0,9.12,0,13.68,0,.84,0,1.68,0,2.51,0,1.21-.56,1.73-1.74,1.73q-4.32,0-8.64,0c-1,0-1.57-.43-1.57-1.49,0-.84,0-1.68,0-2.52v-54a13.51,13.51,0,0,0,0-1.8c-.26-2,.79-2.4,2.54-2.38,9.72.08,19.44-.08,29.15.17s17.2,6,19.61,14.65a22.21,22.21,0,0,1-1.18,15.45,17,17,0,0,1-9.53,8.82C642.16,405.55,640.86,405.5,639.64,406.76Zm-15-9.84c2.64,0,5.28.1,7.91,0,3.76-.18,7.05-1.37,9-4.9,3.82-6.77-.5-14.49-8.55-14.9-5.38-.27-10.78,0-16.17-.09-1.43,0-2.25.34-2.24,2,.06,5.27,0,10.55,0,15.82,0,1.52.58,2.16,2.12,2.13C619.36,396.88,622,396.92,624.63,396.92Z"/><path class="cls-8" d="M872.72,397.22q0-14,0-28.06c0-3,0-3.06,2.91-3.07,7.79,0,15.59-.13,23.38,0,15.9.33,27.06,10.58,29.11,26.33a35.58,35.58,0,0,1-1.56,16.3c-3.86,11.38-13.56,18.87-25.6,19.32-8.62.31-17.26.06-25.89.16-2,0-2.54-.85-2.36-2.6,0-.11,0-.24,0-.36Zm11.91-.43c0,5.88,0,11.75,0,17.63,0,1.28.07,2.41,1.83,2.38,5-.09,10.09.43,15.08-.31a16.61,16.61,0,0,0,13.05-9.61c2.1-4.26,2.36-8.78,1.8-13.34-1.1-8.94-7.39-15-16.29-16a107.7,107.7,0,0,0-12.57-.34c-2.84,0-2.88,0-2.89,3.09C884.61,385.76,884.63,391.28,884.63,396.79Z"/><path class="cls-3" d="M1755.87,406.5l18.19,20.65c-.56,1.41-1.53,1-2.28,1-3,.05-6-.11-9,.06a5.13,5.13,0,0,1-4.56-2.2c-4.65-5.48-9.48-10.81-14.13-16.3a5.09,5.09,0,0,0-4.61-2.11,51.89,51.89,0,0,1-6.11,0c-1.86-.1-2.54.62-2.5,2.5.09,4.67,0,9.35,0,14,0,4.45.42,4-4.06,4-1.92,0-3.84-.05-5.75,0-1.39,0-2-.58-1.88-1.93,0-.72,0-1.44,0-2.16v-54a17.8,17.8,0,0,0,0-1.79c-.16-1.66.46-2.36,2.22-2.34,10.07.1,20.18-.47,30.2.28,17.83,1.34,23,17.87,17.56,30.08-2.07,4.64-5.83,7.5-10.6,9.09C1757.91,405.69,1757.26,406,1755.87,406.5Zm-14.56-29.43V377c-2.64,0-5.28.08-7.92,0-1.83-.07-2.56.55-2.52,2.46q.15,7.56,0,15.12c0,2,.82,2.42,2.58,2.4,5.16-.07,10.32,0,15.48-.06a14.28,14.28,0,0,0,3.88-.66,8.76,8.76,0,0,0,6-5.77c2.31-6.54-1.73-12.75-8.84-13.36C1747.09,376.87,1744.19,377.07,1741.31,377.07Z"/><path class="cls-7" d="M1276.36,403.69v-4q0-15.28,0-30.57c0-3,0-3,2.9-3,2.28,0,4.56,0,6.84,0,1.31,0,2,.42,2,1.85,0,.72,0,1.44,0,2.16V424c0,.48,0,1,0,1.44-.06,2.69-.08,2.51-2.83,2.81-3.32.36-5.44-.8-7.49-3.52-8.73-11.59-17.72-23-26.63-34.41a7.57,7.57,0,0,0-2.25-2.37c-1.09.78-.59,1.95-.59,2.91,0,11,0,22.06,0,33.1,0,.83,0,1.67,0,2.51,0,1.21-.55,1.73-1.74,1.73-2.87,0-5.75,0-8.63,0-1,0-1.58-.41-1.58-1.48,0-.84,0-1.68,0-2.52V370.23c0-.48,0-1,0-1.44.08-2.61.08-2.61,2.54-2.71,6.94-.27,7-.29,11.31,5.19q11.4,14.37,22.75,28.77A13.92,13.92,0,0,0,1276.36,403.69Z"/><path class="cls-9" d="M470.23,403.54a8.06,8.06,0,0,0,.37-3.69c0-10.19,0-20.38,0-30.57,0-3.2,0-3.21,3.07-3.24,2,0,4.08.07,6.11,0,1.75-.08,2.8.39,2.53,2.38a11.52,11.52,0,0,0,0,1.44V424.5c0,.6,0,1.2,0,1.8.1,1.39-.55,2-1.91,1.89a17.18,17.18,0,0,0-2.87,0c-2,.26-3.28-.63-4.5-2.2q-13.83-17.94-27.81-35.76c-.64-.81-1.05-1.88-2.47-2.31a9.55,9.55,0,0,0-.3,3.78q0,16.54,0,33.09c0,3.35,0,3.36-3.32,3.38-2.28,0-4.56,0-6.84,0-1.16,0-1.8-.45-1.75-1.69,0-.71,0-1.43,0-2.15V370c0-.72,0-1.44,0-2.15,0-1.18.43-1.8,1.66-1.79,2.28,0,4.56,0,6.84,0,1.45,0,2.05,1.08,2.77,2q12.38,15.65,24.75,31.31A20,20,0,0,0,470.23,403.54Z"/><path class="cls-9" d="M1520.37,403.76v-4.41q0-14.93,0-29.85c0-3.71-.12-3.46,3.59-3.46,1.8,0,3.6,0,5.39,0,2.67,0,2.72.07,2.72,2.87q0,28.24,0,56.47c0,2.74-.06,2.74-2.78,2.81-.72,0-1.45-.07-2.16,0a4.24,4.24,0,0,1-4.23-2c-6.71-8.75-13.5-17.44-20.27-26.14-3.16-4.06-6.34-8.11-9.54-12.2-1.38.81-.84,2-.85,2.95,0,11,0,22.06,0,33.09,0,.84,0,1.68,0,2.52,0,1.16-.47,1.78-1.69,1.77-2.88,0-5.76,0-8.64,0-1,0-1.57-.42-1.57-1.48,0-.84,0-1.68,0-2.52V370.23a18,18,0,0,0,0-1.8c-.15-1.63.42-2.54,2.2-2.34a2.17,2.17,0,0,0,.36,0c6.94-.27,6.93-.26,11.27,5.26q11.46,14.55,23,29.06A11.76,11.76,0,0,0,1520.37,403.76Z"/><path class="cls-9" d="M1561.49,397.06q0-13.86,0-27.71c0-3.21,0-3.25,3-3.26,7.55,0,15.11-.1,22.66,0,17.26.26,29.25,12.22,29.82,29.53a36.73,36.73,0,0,1-1.61,12.42c-3.74,11.86-13.74,19.64-26.21,20-8.39.27-16.79.1-25.18.09-2.46,0-2.46-.08-2.53-2.7,0-.12,0-.24,0-.36Zm11.63-.31c0,5.75,0,11.5,0,17.25,0,2.72.08,2.79,2.84,2.79,4.31,0,8.65.17,12.93-.18,7.55-.62,12.62-4.73,15.16-11.87a22.26,22.26,0,0,0,.29-14.13c-2.3-7.65-7.39-12.05-15.39-13.11-4.42-.58-8.85-.3-13.28-.34-2.47,0-2.53.07-2.55,2.69C1573.1,385.48,1573.12,391.11,1573.12,396.75Z"/><path class="cls-9" d="M1643.94,397q0-13.84,0-27.69c0-3.2,0-3.24,3.11-3.24q20.32,0,40.64,0c2.76,0,2.79.06,2.83,2.77,0,2.16-.07,4.32,0,6.48.08,1.74-.66,2.28-2.33,2.26-4.91-.07-9.83,0-14.74,0s-9.83,0-14.75,0c-2.87,0-2.89.05-2.92,3q0,4,0,7.91c0,3.05.06,3.08,3.26,3.09q12.95,0,25.89,0c4.82,0,4.52-.41,4.51,4.41,0,1.56,0,3.12,0,4.68s-.65,2.17-2.17,2.08c-1.08-.07-2.16,0-3.24,0h-24.46c-4.15,0-3.76-.34-3.79,4,0,2.28,0,4.56,0,6.83,0,3,0,3,2.92,3,7,0,13.91,0,20.86,0,2.88,0,5.76.06,8.64,0,1.67-.05,2.39.51,2.32,2.26-.1,2.39-.12,4.79,0,7.19.1,1.84-.79,2.21-2.38,2.18-3.6-.07-7.19,0-10.79,0h-29.85c-3.57,0-3.59,0-3.6-3.47Q1643.93,410.86,1643.94,397Z"/><path class="cls-7" d="M542.79,429.64c-8.79.17-16.58-2.14-22.83-8.27-7.45-7.3-9.89-16.52-9.24-26.63a32.25,32.25,0,0,1,7.62-19.42c7.54-8.76,17.48-11.62,28.53-10.28,16.75,2,27.45,14.45,27.68,31.36a37.25,37.25,0,0,1-2.46,14.42C567.49,422.46,556.94,430,542.79,429.64Zm-20.42-33.33c0,6.38,1.18,11.74,5,16.08,5.94,6.7,13.57,7.53,21.73,5.56,5.47-1.32,9.27-4.87,11.55-10a26,26,0,0,0,1.6-16.5,20.15,20.15,0,0,0-31.57-12.27C524.65,383.54,522.54,389.86,522.37,396.31Z"/><path class="cls-9" d="M955.35,397.07q0-13.86,0-27.72c0-3.21,0-3.25,3.07-3.26q20.34,0,40.68,0c2.9,0,2.91.06,2.95,3,0,1.56,0,3.12,0,4.68,0,3.77,0,3.79-3.63,3.79H971.06c-4.35,0-4-.32-4,4.16,0,2.52.06,5,0,7.56-.06,1.69.6,2.37,2.31,2.33,3.36-.07,6.72,0,10.08,0h17.64c3.63,0,3.63,0,3.64,3.79,0,1.44,0,2.88,0,4.32,0,3-.05,3-2.94,3-5.76,0-11.52,0-17.28,0-3.72,0-7.44.06-11.16,0-1.72,0-2.35.61-2.3,2.32.09,2.75,0,5.52,0,8.28,0,3.19,0,3.23,3.17,3.24,7.91,0,15.83,0,23.75,0,2,0,4.08,0,6.12,0,1.34,0,2,.48,2,1.89-.06,2.16,0,4.32,0,6.48,0,3.18,0,3.2-3.1,3.22-4,0-7.92,0-11.88,0q-14.22,0-28.44,0c-3.25,0-3.27,0-3.28-3.4Q955.34,410.92,955.35,397.07Z"/><path class="cls-9" d="M758.79,397c0-9.35,0-18.7,0-28.06,0-2.73.05-2.79,2.79-2.8q20.5,0,41,0c2.76,0,2.78.07,2.83,2.8,0,2.15-.1,4.32,0,6.47s-1.13,2.25-2.73,2.24c-7.19,0-14.39,0-21.58,0-2.88,0-5.76.05-8.63,0-1.54,0-2.14.57-2.11,2.11.07,3.11,0,6.23,0,9.35,0,2.49.09,2.56,2.71,2.57,8.87,0,17.75,0,26.62,0,.84,0,1.68,0,2.51,0,1.4-.05,1.91.62,1.88,2,0,2.27-.11,4.56,0,6.83.11,2-.83,2.39-2.58,2.38-8.63-.05-17.26,0-25.89,0-.84,0-1.68,0-2.52,0-2.7.07-2.73.08-2.76,2.85s0,5.52,0,8.27.07,2.66,2.92,2.69c4,0,7.91,0,11.87,0,5.64,0,11.27,0,16.91,0,3.26,0,3.27,0,3.29,3.42,0,1.92-.1,3.85,0,5.76s-.7,2.46-2.52,2.44c-6.72-.08-13.43,0-20.14,0-7.08,0-14.15,0-21.22,0-2.72,0-2.77-.07-2.77-2.82C758.77,415.89,758.79,406.42,758.79,397Z"/><path class="cls-9" d="M1210.06,428.18c-3.61,0-7.19,0-10.77,0-1.35,0-1.88-.74-2.34-1.8-1.16-2.63-2.41-5.23-3.5-7.89a2.74,2.74,0,0,0-3-2q-14,.11-28.06,0a3,3,0,0,0-3.2,2.22c-1.07,2.54-2.3,5-3.4,7.54a2.57,2.57,0,0,1-2.64,1.93c-3.46-.09-6.93,0-10.25,0-.68-1.31.06-2.12.43-2.94,8.32-18.6,16.72-37.16,24.93-55.81,1.16-2.62,2.51-3.77,5.36-3.4a21.6,21.6,0,0,0,5.39,0c2.79-.33,4.24.68,5.39,3.34,5.33,12.32,10.92,24.53,16.41,36.78,2.74,6.13,5.5,12.25,8.22,18.38C1209.55,425.6,1210.34,426.6,1210.06,428.18ZM1165,405.64c7,0,13.45,0,19.88,0,2.86,0,3-.15,1.78-2.87q-4.56-10.54-9.22-21.05c-.25-.56-.19-1.53-1.45-1.36Z"/><path class="cls-9" d="M1454.56,428.19c-4.13,0-7.6-.06-11.07,0a2.56,2.56,0,0,1-2.65-1.89c-1.08-2.54-2.27-5-3.33-7.57a3,3,0,0,0-3.19-2.23q-14,.12-28.06,0a2.82,2.82,0,0,0-3,1.94c-1.06,2.54-2.31,5-3.37,7.55-.62,1.49-1.42,2.28-3.19,2.21-3.34-.14-6.69,0-9.94,0-.58-1.28.19-2,.55-2.86,8.42-18.81,16.89-37.59,25.22-56.44,1-2.26,2.21-3.08,4.59-2.85a33.2,33.2,0,0,0,6.46,0c2.4-.23,3.64.63,4.61,2.87,4.22,9.79,8.64,19.49,13,29.22q5.65,12.63,11.33,25.25C1453.15,424.78,1453.72,426.2,1454.56,428.19ZM1409,405.41h22.72c-3.83-8.72-7.28-17.12-11.46-25.9Z"/><path class="cls-7" d="M1094.07,363.94a32.53,32.53,0,0,1,14.55,3,19.73,19.73,0,0,1,8.47,7.56c.74,1.22,1,2.08-.67,2.78-2,.87-3.87,1.91-5.76,2.94a2.31,2.31,0,0,1-3.16-.44c-5.27-5.06-11.58-6.41-18.62-5a13.45,13.45,0,0,0-4.62,1.9c-3.65,2.4-4.87,8.67,1,11.25a29.36,29.36,0,0,0,8,2c4.63.63,9.26,1.19,13.72,2.72,10.33,3.54,14.76,11.16,12.57,21.84-1.3,6.3-5.41,10.3-11.12,12.73a37.39,37.39,0,0,1-17.25,2.66,35.9,35.9,0,0,1-12.26-2.54,22.62,22.62,0,0,1-11.29-10.62c-.74-1.4-.85-2.42.87-3.13,1.1-.45,2.1-1.15,3.18-1.67,1.5-.72,2.92-2.19,4.51-2s1.77,2.33,2.83,3.45c4.88,5.19,11.09,6.33,17.78,5.81a16.43,16.43,0,0,0,6.89-1.91c2.79-1.59,4.5-3.84,4.49-7.23s-1.88-5.27-4.64-6.66c-3.51-1.75-7.34-2.12-11.13-2.61a49.62,49.62,0,0,1-12.54-3c-8.83-3.62-11.54-11.3-10-19.25,1.12-5.8,5-9.43,10.13-11.79A31.58,31.58,0,0,1,1094.07,363.94Z"/><path class="cls-8" d="M1346.22,402.55c0,7.68,0,15.36,0,23,0,2.53-.08,2.56-2.64,2.61s-5,0-7.55,0c-1.17,0-1.79-.47-1.77-1.69,0-.84,0-1.68,0-2.52V381.53c0-.72,0-1.44,0-2.16-.09-2.43-.1-2.47-2.74-2.5-4.32,0-8.63,0-13,0-.72,0-1.44,0-2.16,0-1.19,0-1.79-.49-1.75-1.7,0-.12,0-.24,0-.36.14-2.74-1.09-6.11.5-8s5-.64,7.54-.66c12.95-.07,25.91,0,38.86,0,.84,0,1.68,0,2.52,0,1.16,0,1.83.42,1.76,1.67,0,.12,0,.24,0,.36-.13,2.74,1.07,6.12-.48,8.05s-5,.54-7.55.66c-3,.14-6,0-9,.05-2.48,0-2.54.08-2.55,2.65C1346.2,387.2,1346.22,394.88,1346.22,402.55Z"/><path class="cls-9" d="M712.72,402.55c0,7.68,0,15.35,0,23,0,2.52-.07,2.56-2.62,2.6s-4.79,0-7.19,0c-1.39,0-1.95-.59-1.89-1.94,0-.95,0-1.91,0-2.87V381.66c0-.84-.07-1.69,0-2.52.15-1.71-.58-2.33-2.29-2.31-4.79.08-9.59,0-14.39,0-3.17,0-3.18,0-3.21-3.11,0-1.92,0-3.84,0-5.76,0-1.39.59-2,1.94-1.9.72,0,1.44,0,2.16,0h43.17c.71,0,1.43,0,2.15,0,1.16,0,1.84.4,1.78,1.66,0,.12,0,.24,0,.36-.12,2.74,1.08,6.13-.48,8.06s-5,.54-7.55.66c-3,.13-6,0-9,0-2.49,0-2.55.09-2.56,2.66C712.71,387.2,712.73,394.88,712.72,402.55Z"/><path class="cls-5" d="M1397.44,205.54c-3.47,0-6.94-.06-10.41,0-1.76.05-2.59-.41-2.54-2.38q.16-7.71,0-15.43c0-1.92.68-2.47,2.49-2.43,4.07.1,8.14-.06,12.2.08,7.17.24,11,4.13,11.15,11.31.06,2.15-.09,4.31.05,6.46.12,2-.76,2.44-2.53,2.39C1404.38,205.48,1400.91,205.54,1397.44,205.54Z"/><path class="cls-5" d="M1194.1,205.54c-3.47,0-6.94-.06-10.4,0-1.63,0-2.39-.39-2.36-2.19.09-5.38.06-10.76,0-16.14,0-1.37.53-1.91,1.9-1.89,4.54.06,9.09-.12,13.62.12,5.87.31,9.18,3.49,10.07,9.27.46,3,.1,6,.21,8.95,0,1.4-.61,2-2,1.85H1194.1Z"/><path class="cls-6" d="M1154.45,48.64c-3.46,0-6.93,0-10.4,0-1.6,0-2.4-.33-2.37-2.16.09-5.38.08-10.76,0-16.14,0-1.63.7-2,2.16-2,4.3.08,8.61-.08,12.91.11,6.42.27,9.86,3.44,10.66,9.86.33,2.72.12,5.49.24,8.24.08,1.56-.56,2.1-2.09,2.07C1161.87,48.6,1158.16,48.64,1154.45,48.64Z"/></svg>